<?xml version="1.0" encoding="UTF-8"?>
<svg xmlns="http://www.w3.org/2000/svg" xmlns:xlink="http://www.w3.org/1999/xlink" width="50px" height="50px" viewBox="0 0 50 50" version="1.1">
<g id="surface1">
<path style=" stroke:none;fill-rule:nonzero;fill:rgb(0%,0%,0%);fill-opacity:1;" d="M 50 25 C 50 38.808594 38.808594 50 25 50 C 11.191406 50 0 38.808594 0 25 C 0 11.191406 11.191406 0 25 0 C 38.808594 0 50 11.191406 50 25 Z M 37.59375 15.53125 C 37.144531 15.082031 36.527344 14.835938 35.890625 14.847656 C 35.253906 14.859375 34.652344 15.132812 34.21875 15.601562 L 23.367188 29.429688 L 16.824219 22.882812 C 15.902344 22.023438 14.460938 22.050781 13.570312 22.941406 C 12.675781 23.835938 12.652344 25.273438 13.511719 26.195312 L 21.78125 34.46875 C 22.230469 34.917969 22.84375 35.164062 23.480469 35.152344 C 24.117188 35.140625 24.71875 34.871094 25.152344 34.40625 L 37.628906 18.8125 C 38.511719 17.894531 38.5 16.433594 37.597656 15.53125 Z M 37.59375 15.53125 "/>
</g>
</svg>
